# xmcd
#
# Track frame offsets: 
#        150
#        13734
#        24386
#        34761
#        45044
#        57903
#        69490
#        79503
#        92045
#        106751
#        120024
#        130483
#        144677
#        156975
#        166979
#        178756
#        189304
#        199411
#        210427
#        221337
#        230587
#        239688
#        250958
#        262770
#
# Disc length: 3638 seconds
#
# Revision: 0
# Processed by: cddbd v1.5.2PL0 Copyright (c) Steve Scherf et al.
# Submitted via: ExactAudioCopyFreeDBPlugin 1.0
#
DISCID=410e3418
DTITLE=The Louvin Brothers - Complete Recorded Works 1952-62 CD4
DYEAR=2004
DGENRE=Country
TTITLE0=Satan Is Real
TTITLE1=There's A Higher Power
TTITLE2=The Chrisitan Life
TTITLE3=The River Of Jordan
TTITLE4=The Kneeling Drunkard's Plea
TTITLE5=Are You Afraid To Die
TTITLE6=He Can Be Found
TTITLE7=Dying From Home, And Lost
TTITLE8=The Drunkard's Doom
TTITLE9=Satan's Jeweled Crown
TTITLE10=The Angels Rejoiced Last Night
TTITLE11=I'm Ready To Go Home
TTITLE12=My Baby's Gone
TTITLE13=Blue From Now On
TTITLE14=When I Loved You
TTITLE15=She Didn't Even Know I Was Gone
TTITLE16=You're Running Wild
TTITLE17=Plenty Of Everything But You
TTITLE18=I Wish You Knew
TTITLE19=While You're Cheating On Me
TTITLE20=Lorene
TTITLE21=I Wish It Had Been A Dream
TTITLE22=The First One To Love You
TTITLE23=My Baby Came Back
EXTD=
EXTT0=
EXTT1=
EXTT2=
EXTT3=
EXTT4=
EXTT5=
EXTT6=
EXTT7=
EXTT8=
EXTT9=
EXTT10=
EXTT11=
EXTT12=
EXTT13=
EXTT14=
EXTT15=
EXTT16=
EXTT17=
EXTT18=
EXTT19=
EXTT20=
EXTT21=
EXTT22=
EXTT23=
PLAYORDER=
